<svg xmlns="http://www.w3.org/2000/svg" version="1.1" xmlns:xlink="http://www.w3.org/1999/xlink" xmlns:svgjs="http://svgjs.com/svgjs" width="1920" height="1080" preserveAspectRatio="none" viewBox="0 0 1920 1080"><g mask="url(&quot;#SvgjsMask1212&quot;)" fill="none"><rect width="1920" height="1080" x="0" y="0" fill="url(#SvgjsLinearGradient1213)"></rect><path d="M -27.16054658256337,567 C 100.84,525.8 356.84,358.2 612.8394534174366,361 C 868.84,363.8 996.84,558.6 1252.8394534174367,581 C 1508.84,603.4 1636.84,474.6 1892.8394534174367,473 C 2148.84,471.4 2527.41,583.2 2532.8394534174367,573 C 2538.27,562.8 2042.57,452.2 1920,422" stroke="rgba(43, 45, 66, 1)" stroke-width="2"></path><path d="M -722.1152046094373,471 C -594.12,516.6 -338.12,705.4 -82.11520460943731,699 C 173.88,692.6 301.88,433.6 557.8847953905627,439 C 813.88,444.4 941.88,732.4 1197.8847953905627,726 C 1453.88,719.6 1693.46,432.2 1837.8847953905627,407 C 1982.31,381.8 1903.58,561.4 1920,600" stroke="rgba(43, 45, 66, 1)" stroke-width="2"></path><path d="M -110.13820350574929,376 C 17.86,418.2 273.86,596.4 529.8617964942507,587 C 785.86,577.6 913.86,325.8 1169.8617964942507,329 C 1425.86,332.2 1553.86,562.6 1809.8617964942507,603 C 2065.86,643.4 2427.83,524.6 2449.8617964942505,531 C 2471.89,537.4 2025.97,614.2 1920,635" stroke="rgba(42, 157, 143, 1)" stroke-width="2"></path><path d="M -912.9390733381924,574 C -784.94,543.2 -528.94,394.2 -272.9390733381925,420 C -16.94,445.8 111.06,702.4 367.0609266618075,703 C 623.06,703.6 751.06,453.6 1007.0609266618076,423 C 1263.06,392.4 1464.47,537.2 1647.0609266618076,550 C 1829.65,562.8 1865.41,499.6 1920,487" stroke="rgba(43, 45, 66, 1)" stroke-width="2"></path><path d="M -91.78411717313725,565 C 36.22,543 292.22,453 548.2158828268628,455 C 804.22,457 932.22,587 1188.2158828268628,575 C 1444.22,563 1572.22,359.2 1828.2158828268628,395 C 2084.22,430.8 2449.86,725.4 2468.215882826863,754 C 2486.57,782.6 2029.64,581.2 1920,538" stroke="rgba(42, 157, 143, 1)" stroke-width="2"></path></g><defs><mask id="SvgjsMask1212"><rect width="1920" height="1080" fill="#ffffff"></rect></mask><linearGradient x1="10.94%" y1="-19.44%" x2="89.06%" y2="119.44%" gradientUnits="userSpaceOnUse" id="SvgjsLinearGradient1213"><stop stop-color="#0e2a47" offset="0"></stop><stop stop-color="rgba(0, 0, 0, 1)" offset="1"></stop></linearGradient></defs></svg>